/* XPM */
static char *exit2[] = {
/* columns rows colors chars-per-pixel */
"32 32 241 2 ",
"   c #535348",
".  c black",
"X  c gray2",
"o  c gray3",
"O  c #0B0A0A",
"+  c #0E0E0D",
"@  c #0D0E0E",
"#  c #171009",
"$  c #040D11",
"%  c #070D10",
"&  c #070D11",
"*  c #070E11",
"=  c #070E12",
"-  c #080F12",
";  c #090F12",
":  c #090F13",
">  c #0B1114",
",  c #131313",
"<  c #101314",
"1  c #121314",
"2  c gray8",
"3  c #151414",
"4  c #141514",
"5  c #151515",
"6  c #161515",
"7  c #161616",
"8  c #171616",
"9  c #161717",
"0  c gray9",
"q  c #181717",
"w  c #181818",
"e  c #191918",
"r  c #191919",
"t  c gray10",
"y  c #1B1B1A",
"u  c #1B1B1B",
"i  c #1C1C1B",
"p  c #1D1D1B",
"a  c gray11",
"s  c #1D1D1D",
"d  c #1E1E1D",
"f  c #1E1E1E",
"g  c #1F1F1E",
"h  c #1E1F1F",
"j  c gray12",
"k  c #261D14",
"l  c #352415",
"z  c #30261E",
"x  c #31261E",
"c  c #31271E",
"v  c #33281E",
"b  c #202020",
"n  c #212120",
"m  c #222221",
"M  c #232322",
"N  c #232323",
"B  c #262625",
"V  c #272726",
"C  c #292626",
"Z  c #282826",
"A  c #282827",
"S  c #292928",
"D  c gray16",
"F  c #2A2828",
"G  c #2B2B29",
"H  c #2D2D2B",
"J  c #2B2E2D",
"K  c #2D2D2C",
"L  c #2E2E2C",
"P  c #322820",
"I  c #332921",
"U  c #322922",
"Y  c #372B20",
"T  c #342A23",
"R  c #3C2D20",
"E  c #3C2D21",
"W  c #302B28",
"Q  c #393027",
"!  c #3D3127",
"~  c #3E342F",
"^  c #323230",
"/  c #323231",
"(  c #333331",
")  c #343432",
"_  c #353532",
"`  c #343433",
"'  c #363634",
"]  c #393535",
"[  c #3E3832",
"{  c #3A3A38",
"}  c #3B3B39",
"|  c #3C3C39",
" . c #3D3C3A",
".. c #3D3D3A",
"X. c #3E3E3B",
"o. c #3E3F3D",
"O. c #3E3E3E",
"+. c #413429",
"@. c #46362A",
"#. c #48392D",
"$. c #4A3A2D",
"%. c #503E2E",
"&. c #4A3B30",
"*. c #4A3C31",
"=. c #4A3C32",
"-. c #4B3D32",
";. c #4D3E30",
":. c #4C3E35",
">. c #413E3E",
",. c #42423F",
"<. c #4F433A",
"1. c #48433D",
"2. c #414141",
"3. c #434343",
"4. c #444441",
"5. c gray27",
"6. c #474744",
"7. c #484747",
"8. c #484844",
"9. c #494945",
"0. c #494949",
"q. c #4B4B48",
"w. c #4B4B4B",
"e. c #4E4E4A",
"r. c #4C4C4C",
"t. c gray30",
"y. c #4E4E4E",
"u. c gray31",
"i. c #524E48",
"p. c #524E4B",
"a. c #50504C",
"s. c #52524E",
"d. c #52524F",
"f. c #52534F",
"g. c #53534F",
"h. c #56524D",
"j. c #535353",
"k. c #575753",
"l. c gray33",
"z. c #565656",
"x. c gray34",
"c. c #5C5C57",
"v. c #585858",
"b. c gray35",
"n. c #5B5B5B",
"m. c #5D5D58",
"M. c #5D5D59",
"N. c #5E5E5A",
"B. c gray36",
"V. c #5D5D5D",
"C. c gray37",
"Z. c #5F5F5E",
"A. c #5F5F5F",
"S. c #62625D",
"D. c #62625E",
"F. c #606060",
"G. c gray38",
"H. c #636360",
"J. c #626262",
"K. c gray39",
"L. c #656360",
"P. c #656560",
"I. c #676762",
"U. c #626364",
"Y. c #636464",
"T. c #646464",
"R. c #656565",
"E. c #656667",
"W. c gray40",
"Q. c #676766",
"!. c #666667",
"~. c #666767",
"^. c #676767",
"/. c #696662",
"(. c #686863",
"). c #696965",
"_. c #6C6C67",
"`. c #686868",
"'. c DimGray",
"]. c #696A6A",
"[. c #6E6E69",
"{. c #6E6F6B",
"}. c #6B6C6D",
"|. c #6C6C6C",
" X c #6D6D6D",
".X c gray43",
"XX c #6E6F6F",
"oX c #6F6F6F",
"OX c #6F706F",
"+X c #72726D",
"@X c #73736F",
"#X c #6F7070",
"$X c gray44",
"%X c #707171",
"&X c #717171",
"*X c #727272",
"=X c #727373",
"-X c gray45",
";X c #747472",
":X c #777673",
">X c #747474",
",X c #757574",
"<X c #747575",
"1X c gray46",
"2X c #777774",
"3X c #757676",
"4X c #767676",
"5X c #777777",
"6X c #787773",
"7X c #7A7A77",
"8X c gray47",
"9X c #797979",
"0X c gray48",
"qX c #7B7B7B",
"wX c #7C7C78",
"eX c #7D7D7A",
"rX c #7F7E7B",
"tX c #7C7C7C",
"yX c gray49",
"uX c #7E7E7D",
"iX c #7E7E7E",
"pX c gray50",
"aX c #808080",
"sX c #818181",
"dX c gray51",
"fX c #838282",
"gX c #838383",
"hX c #858682",
"jX c #848484",
"kX c gray52",
"lX c #868686",
"zX c gray53",
"xX c #888888",
"cX c #898989",
"vX c gray54",
"bX c #8B8B8B",
"nX c #8D8D8D",
"mX c #8E8E8E",
"MX c gray56",
"NX c gray57",
"BX c #939393",
/* pixels */
"                                                                ",
"                        1XmXmXkXBX9XoX                          ",
"                    9XmXkX9XkX9XkX9XmXmX                        ",
"                kXkXkXkX9X1X9X9X9X1X9XkXkXkX9X                  ",
"              9XmX1XoX1X1X1X9XkX9X1X1XOX1X9XmX1X                ",
"            1XkX1X1XoXK.j.3.t.t.3.7.v.K.1X1X1X9X                ",
"          1XBX1X9XoX3.t . . . . . . o S j.9X1X9XkX              ",
"          9X9X9XoXS . 0 0 0 0 0 0 0 0 o . t.9X1XkXoX            ",
"        kXmXkX9Xt.. t 0 0 0 0 0 0 0 0 0 0 # K.9XkXBX1X          ",
"        kX1X1X1Xt o t 0 0 0 0 0 0 0 0 0 > k i.9X1XkX9X          ",
"        9XkX1Xj.o 0 0 0 0 0 0 0 0 0 0 0 * U &.K.9XkX1X          ",
"        1XBX9Xj.. t 0 0 0 0 0 0 0 0 0 0 * v $.oXkXkX            ",
"        1XkX9XK.. t 0 0 0 0 0 0 0 0 0 0 * U 1.1X1X9X            ",
"        v.kX1Xv.. t 0 0 0 0 0 0 0 0 0 0 o S >.oX1X1X            ",
"        1XmX9Xt.. t 0 0 0 0 0 0 0 0 0 0 * U &.K.kX9X            ",
"        9X9X9Xv.. t 0 0 0 0 0 0 0 0 0 0 - v &.#X9XkX9X          ",
"        oXoX9Xv.. t 0 0 0 0 0 0 0 0 0 0 - z &.1X9X1XoX          ",
"        9X9X9Xv.. t 0 0 0 0 0 0 0 0 0 0 - z #.1X9X9XoX          ",
"        oXkX1Xt.. t 0 0 0 0 0 0 0 0 0 0 * z @.K.9XkXv.          ",
"        1XkX1Xv.. t 0 0 0 0 0 0 0 0 0 0 - z &.oX1X9X            ",
"        K.9XoXv.. t 0 0 0 0 0 0 0 0 0 0 > z &.oXoXoX            ",
"        K.kX1Xt.. t 0 0 0 0 0 0 0 0 0 t 0 C ] K.9X1X            ",
"        9X9X1Xt.. t 0 0 0 0 t t t t t b t W ~ K.9XkX1X          ",
"        oXoX1Xv.. t 0 0 t t t b b S S S S Q $.1X1X1XoX          ",
"        oX1X9Xv.. t t t t b Z S ) ) O.O.O.[ @.1X9X1X(.          ",
"        oX9X1Xt.. b t b Z S ) O.,.3.t.t.g.1.v K.1X9XK.          ",
"        K.9XoXt.. b b S ) O.3.t.g.c.c.v.K.i.E K.1X1X            ",
"        v.K.oXv.. b S ) O.9.g.j.v.S.K.(.oXg.l oXK.v.            ",
"        v.kX9Xv.. ) O.9.g.v.K.(.+X6X9X9XkX/.Q 1X9X1X            ",
"          K.K.O.t ) O.9.g.c.S.(.oX+X1X7X9X1XK.j.K.v.            ",
"                                                                ",
"                                                                "
};
