/* XPM */
static char *player2[] = {
/* columns rows colors chars-per-pixel */
"32 32 212 2 ",
"   c #535348",
".  c #010000",
"X  c #00000A",
"o  c #0B0006",
"O  c #130000",
"+  c #180000",
"@  c #000015",
"#  c #00011D",
"$  c #030B1C",
"%  c #050815",
"&  c #141312",
"*  c #2D0707",
"=  c #3E0702",
"-  c #3C0F12",
";  c #231B1B",
":  c #291918",
">  c #3B1E1B",
",  c #351916",
"<  c #2F0A1B",
"1  c #1A201F",
"2  c #2A241C",
"3  c #33201A",
"4  c #3E211B",
"5  c #392B11",
"6  c #000124",
"7  c #000924",
"8  c #000A28",
"9  c #1E0024",
"0  c #001D2B",
"q  c #001725",
"w  c #360623",
"e  c #371C22",
"r  c #012429",
"t  c #19232A",
"y  c #1B2E2A",
"u  c #12312E",
"i  c #1C3738",
"p  c #2F2423",
"a  c #2C2B2A",
"s  c #272828",
"d  c #3D2B24",
"f  c #312E2B",
"g  c #352624",
"h  c #23302F",
"j  c #3C3426",
"k  c #35332B",
"l  c #393C2E",
"z  c #2A3A36",
"x  c #343832",
"c  c #480000",
"v  c #550000",
"b  c #421C1A",
"n  c #551312",
"m  c #6D0000",
"M  c #720000",
"N  c #5E3405",
"B  c #44221D",
"V  c #4D241E",
"C  c #46271B",
"Z  c #50251F",
"A  c #59261F",
"S  c #5C2B1A",
"D  c #542A17",
"F  c #423518",
"G  c #463A1B",
"H  c #5F3310",
"J  c #54321F",
"K  c #53290A",
"L  c #622A0C",
"P  c #713400",
"I  c #7A3300",
"U  c #672C1C",
"Y  c #722A1F",
"T  c #633013",
"R  c #6F3519",
"E  c #75351C",
"W  c #432523",
"Q  c #482925",
"!  c #512620",
"~  c #582924",
"^  c #463E2A",
"/  c #533421",
"(  c #5A3923",
")  c #5B392C",
"_  c #5A3823",
"`  c #672C24",
"'  c #7C2B21",
"]  c #772D22",
"[  c #633526",
"{  c #7D3E29",
"}  c #693B34",
"|  c #733C31",
" . c #394D28",
".. c #5B4619",
"X. c #6E4B08",
"o. c #65481C",
"O. c #6D561E",
"+. c #785316",
"@. c #7C651F",
"#. c #5A4329",
"$. c #574428",
"%. c #4B4532",
"&. c #564534",
"*. c #5C5134",
"=. c #555239",
"-. c #5C573A",
";. c #504A2C",
":. c #7C432E",
">. c #675527",
",. c #735A26",
"<. c #715928",
"1. c #7D5B2A",
"2. c #744536",
"3. c #624638",
"4. c #7D6524",
"5. c #7B632B",
"6. c #7A6628",
"7. c #6A623F",
"8. c #7E6B32",
"9. c #514642",
"0. c #6F5243",
"q. c #6B584C",
"w. c #7B5C46",
"e. c #666245",
"r. c #6E6B49",
"t. c #6B6547",
"y. c #796C45",
"u. c #746E4A",
"i. c #7F6146",
"p. c #79734E",
"a. c #7A7249",
"s. c #696253",
"d. c #7B7551",
"f. c #747058",
"g. c #6B6F64",
"h. c #747264",
"j. c #831800",
"k. c #801F18",
"l. c #892D1F",
"z. c #842B22",
"x. c #892A23",
"c. c #8E352A",
"v. c #883327",
"b. c #903629",
"n. c #80440C",
"m. c #84590E",
"M. c #AC4C00",
"N. c #AC4D16",
"B. c #90641D",
"V. c #9A7D10",
"C. c #866716",
"Z. c #955938",
"A. c #826C2B",
"S. c #8C6523",
"D. c #947122",
"F. c #86743C",
"G. c #916B31",
"H. c #C45B00",
"J. c #C47810",
"K. c #D96214",
"L. c #FF7100",
"P. c #8B5E4C",
"I. c #8C684C",
"U. c #8A6451",
"Y. c #936A56",
"T. c #857B51",
"R. c #997E51",
"E. c #A86347",
"W. c #8B7A64",
"Q. c #937E6A",
"!. c #DA8A0F",
"~. c #E08D00",
"^. c #FC9000",
"/. c #FF941B",
"(. c #97864E",
"). c #8C8155",
"_. c #8A835A",
"`. c #91885B",
"'. c #948B5C",
"]. c #BC8D51",
"[. c #8E8569",
"{. c #9A926F",
"}. c #9C9273",
"|. c #958E6B",
" X c #AF8660",
".X c #B48569",
"XX c #A98C79",
"oX c #A69F7C",
"OX c #C08A6E",
"+X c #9C9B88",
"@X c #A99A86",
"#X c #B5AA8C",
"$X c #ADAA92",
"%X c #B7AE90",
"&X c #BAB59B",
"*X c #ADA686",
"=X c #CC9C81",
"-X c #D8A486",
";X c #C6BF9E",
":X c #F5BE9C",
">X c #E3B394",
",X c #C2BBA1",
"<X c #CCC4A3",
"1X c #C4C1A5",
"2X c #FFC3A1",
"3X c #E1DBBB",
"4X c #E9E6C7",
"5X c #ECEACA",
"6X c #F3EFCF",
"7X c #F6F4D6",
"8X c #FBF9D8",
"9X c #FFFFE8",
/* pixels */
"                                                                ",
"                                                                ",
"                          ,X*X}.*.}.%Xu.                        ",
"                        &X5X6X4X<X6X9X3X}.                      ",
"                      e.4X5X7X&X1X4X4X7X<X;.                    ",
"                      7X9Xf.4X+X..;X#X;X|.&                     ",
"                      1X8X@ $X+X. ( &X{.[.7.                    ",
"                        @Xq._ .X9.@X#XoXH &.                    ",
"                      P $Xs.=X:X>X].[.l -.X.                    ",
"                      X.R.Q P..XOXG.O ! ~ U ] C                 ",
"                      z.j.k.M m m z.c.v.z.z.z.Y Y               ",
"                    B z.c.v.c.c.b.x.l.' ] ' ' Y ` [             ",
"              S.    : ; = - b w m.N + . . X $ 6 . .             ",
"            n.S.O.# y y r u z 0 y.W.g.h.s.s. X].@X@X&X,X}.      ",
"          .X2.C.D.w.w.XX@X@X@XW.Y.XXXXXXQ.} Z./.E.9.0.0.3.      ",
"        i.2XU.V.B.{ { :.:.| | | v . + . . X ~.L.M.o .           ",
"      +.#.Y.~ +.B.c D * + . # K / i z x s 2 !.^.K.N. .#.        ",
"              L S.  ~ W p d ( J J d W J D b @ J.H.I.G.N         ",
"                    S > ; g W j 4.;.5.0 J T $ C . w.-XU.        ",
"                    A , s a 0 >.F.d.8.>.W H : * &.-X-X2.        ",
"                  ` B ; a f q 4.7.`.d.A.#.D : > ) U.O n         ",
"                  A ; s a a # 4.G p.`.a.4.d 3 4 , . W ~         ",
"                  A 1 a a a 6 A.5 %.)._.F.>.7 4 B Q > C         ",
"                  b t k f k # 4.F $ u._.(.<.8 3 b > > Z         ",
"                  5 g 6 7 t # @.F @ %.p.(.o.r 2 , 4 > Z         ",
"                w <.5.<.5.<...C.F % & -.T.<.j q , > > C         ",
"                %.r.).).y.^ <.o.> 4 > j r.y.1.( / e > !         ",
"              p u.'.T.=.k f 9 < B B > %.;.t.`.T.=.g > !         ",
"          E T J *.r.e.e.^ g     > 4   g -.t.u.u.=.C             ",
"        S E U T I L [ ) d               e ( S S U S             ",
"                                          P T E E R H           ",
"                                                                "
};
