/* XPM */
static char *sprite2[] = {
/* columns rows colors chars-per-pixel */
"32 32 166 2 ",
"   c #535348",
".  c black",
"X  c #0B0000",
"o  c #180000",
"O  c #000010",
"+  c #270000",
"@  c #290000",
"#  c #001B2E",
"$  c #00003E",
"%  c #070434",
"&  c #230224",
"*  c #2B1D2B",
"=  c #2C2A3A",
"-  c #352D37",
";  c #302F3C",
":  c #34313B",
">  c #7E2900",
",  c #743E0B",
"<  c #423837",
"1  c #061443",
"2  c #032246",
"3  c #002C4C",
"4  c #00264C",
"5  c #172C4E",
"6  c #18334E",
"7  c #00395B",
"8  c #123653",
"9  c #153D59",
"0  c #183F5B",
"q  c #29354B",
"w  c #3C3949",
"e  c #443B45",
"r  c #5C3F46",
"t  c #054257",
"y  c #19425F",
"u  c #244058",
"i  c #32545C",
"p  c #004769",
"a  c #1F4B66",
"s  c #324D68",
"d  c #28516C",
"f  c #345B66",
"g  c #3A576D",
"h  c #36596A",
"j  c #285C72",
"k  c #294B69",
"l  c #006779",
"z  c #2F627D",
"x  c #37687D",
"c  c #43484E",
"v  c #444448",
"b  c #474C53",
"n  c #494E56",
"m  c #404450",
"M  c #4B5058",
"N  c #475561",
"B  c #605C6C",
"V  c #46677B",
"C  c #516B7C",
"Z  c #66797E",
"A  c #903700",
"S  c #AB571A",
"D  c #BF6400",
"F  c #844B36",
"G  c #925E3F",
"H  c #986B37",
"J  c #A36836",
"K  c #D27800",
"L  c #AC7942",
"P  c #956C66",
"I  c #E58E27",
"U  c #BB864A",
"Y  c #D69A57",
"T  c #EB9946",
"R  c #FFB75E",
"E  c #FFC163",
"W  c #156281",
"Q  c #037288",
"!  c #236686",
"~  c #366D89",
"^  c #36738F",
"/  c #3E7996",
"(  c #327797",
")  c #486E83",
"_  c #446F86",
"`  c #44738D",
"'  c #5B7B8B",
"]  c #51778A",
"[  c #427F9C",
"{  c #557790",
"}  c #657C82",
"|  c #707082",
" . c #04849B",
".. c #008899",
"X. c #3F829F",
"o. c #0088A4",
"O. c #0096AB",
"+. c #2188A2",
"@. c #3C85A4",
"#. c #388EA5",
"$. c #2A92AB",
"%. c #3E90A5",
"&. c #2F9FB2",
"*. c #00A4BB",
"=. c #45809C",
"-. c #4E889E",
";. c #51869F",
":. c #6A848B",
">. c #688A96",
",. c #738E95",
"<. c #74929B",
"1. c #4283A1",
"2. c #518FAA",
"3. c #4199AC",
"4. c #4293AA",
"5. c #5999B5",
"6. c #618EA1",
"7. c #6B95A7",
"8. c #7A9AA3",
"9. c #42A1B5",
"0. c #76A1AF",
"q. c #6CA7BE",
"w. c #74A2B2",
"e. c #00B0C8",
"r. c #2BA9C0",
"t. c #3AB0C4",
"y. c #24BAD7",
"u. c #67AAC1",
"i. c #72ADC3",
"p. c #6BB2C5",
"a. c #78B3C8",
"s. c #7EBBD2",
"d. c #15D6F5",
"f. c #29D5F3",
"g. c #43D3F0",
"h. c #68D5EE",
"j. c #66DEF6",
"k. c #4BE5FF",
"l. c #66E3FB",
"z. c #67E8FF",
"x. c #87AEB7",
"c. c #8CB5BE",
"v. c #86B0BB",
"b. c #90B4BC",
"n. c #8DB9C4",
"m. c #86B4C0",
"M. c #94BBC4",
"N. c #98BDC6",
"B. c #ABBEC1",
"V. c #A0BBC2",
"C. c #96C2CC",
"Z. c #99C3CF",
"A. c #8BC3D4",
"S. c #8EC9D6",
"D. c #97C7D3",
"F. c #9CCBD5",
"G. c #9DCEDA",
"H. c #96C8D5",
"J. c #9DD1DD",
"K. c #B7C3C2",
"L. c #A1D3DD",
"P. c #8AD9EC",
"I. c #9DD2E0",
"U. c #A2D5E1",
"Y. c #A5D9E4",
"T. c #ADE4EF",
/* pixels */
"                                                                ",
"                            . . O                               ",
"                          H U L J ,                             ",
"                      n 1 Y E R T G 3 c                         ",
"                  . :.G.4.P K I D | u.Z.c                       ",
"                  o ' s.A.N.B.K.B.Z.A.i.m                       ",
"                    u =.A.C.M.V.M.D.a.! =                       ",
"                      * @.B A S > { ^ +                         ",
"                        ; 6 r F w q ;                           ",
"                        @ ^ ` e X.g +                           ",
"                        @ _ / W =.g                             ",
"                          o V 5.-                               ",
"                          . ,.H.n                               ",
"                          . ,.L.v                               ",
"                          2 0.L.] %                             ",
"                        e [ a.D.5.) <                           ",
"                  X . - C.i.( h 7 n.c.. X                       ",
"                X <.n.c.L.I.w.$ 3 ' 6.;.n.}                     ",
"                . M.T.Y.U.J.w.4 0 $ p 2.S.>..                   ",
"                - v.U.L.J.q.! 8 9 0 8 y @.) <                   ",
"              c C.i.a.U.u.~ 9 9 8 9 0 9 7 m.x.X                 ",
"              n L.7.s } d 1 % a =.z 2 % . n.N.X                 ",
"              n H.u.o.#.%.$.Q 5 / k j 3.o.A.b.X                 ",
"              n H.h.f.l.z.k.y.d j t 9.z.d.P.b.X                 ",
"              M L.p...&.j.z.l.j.j.g.f.f.O.S.M.X                 ",
"                :.-.....t.9.4.3.3.r.e.*.+.>.Z                   ",
"                . 7.p.+.l # . . . t Q %.a.C .                   ",
"                X x.A.1.h i f f f i x 5.G.:..                   ",
"                  c w N D.L.G.G.G.U.v.& n                       ",
"                        :.<.<.<.<.8.}                           ",
"                        . . . . . .                             ",
"                                                                "
};
