/* XPM */
static char *32wall_xpm[] = {
/* width height num_colors chars_per_pixel */
"    32    32      256            2",
/* colors */
"`` c #1e1919",
"`. c #403635",
"`# c #151212",
"`a c #6d5e5e",
"`b c #4e4341",
"`c c #2f2929",
"`d c #262121",
"`e c #756566",
"`f c #5e5050",
"`g c #363030",
"`h c #463d3b",
"`i c #827272",
"`j c #564948",
"`k c #665858",
"`l c #878484",
"`m c #9b9899",
"`n c #8f8e8e",
"`o c #000000",
"`p c #000000",
"`q c #000000",
"`r c #000000",
"`s c #000000",
"`t c #000000",
"`u c #000000",
"`v c #000000",
"`w c #000000",
"`x c #000000",
"`y c #000000",
"`z c #000000",
"`A c #000000",
"`B c #000000",
"`C c #000000",
"`D c #000000",
"`E c #000000",
"`F c #000000",
"`G c #000000",
"`H c #000000",
"`I c #000000",
"`J c #000000",
"`K c #000000",
"`L c #000000",
"`M c #000000",
"`N c #000000",
"`O c #000000",
"`P c #000000",
"`Q c #000000",
"`R c #000000",
"`S c #000000",
"`T c #000000",
"`U c #000000",
"`V c #000000",
"`W c #000000",
"`X c #000000",
"`Y c #000000",
"`Z c #000000",
"`0 c #000000",
"`1 c #000000",
"`2 c #000000",
"`3 c #000000",
"`4 c #000000",
"`5 c #000000",
"`6 c #000000",
"`7 c #000000",
"`8 c #000000",
".` c #000000",
".. c #000000",
".# c #000000",
".a c #000000",
".b c #000000",
".c c #000000",
".d c #000000",
".e c #000000",
".f c #000000",
".g c #000000",
".h c #000000",
".i c #000000",
".j c #000000",
".k c #000000",
".l c #000000",
".m c #000000",
".n c #000000",
".o c #000000",
".p c #000000",
".q c #000000",
".r c #000000",
".s c #000000",
".t c #000000",
".u c #000000",
".v c #000000",
".w c #000000",
".x c #000000",
".y c #000000",
".z c #000000",
".A c #000000",
".B c #000000",
".C c #000000",
".D c #000000",
".E c #000000",
".F c #000000",
".G c #000000",
".H c #000000",
".I c #000000",
".J c #000000",
".K c #000000",
".L c #000000",
".M c #000000",
".N c #000000",
".O c #000000",
".P c #000000",
".Q c #000000",
".R c #000000",
".S c #000000",
".T c #000000",
".U c #000000",
".V c #000000",
".W c #000000",
".X c #000000",
".Y c #000000",
".Z c #000000",
".0 c #000000",
".1 c #000000",
".2 c #000000",
".3 c #000000",
".4 c #000000",
".5 c #000000",
".6 c #000000",
".7 c #000000",
".8 c #000000",
"#` c #000000",
"#. c #000000",
"## c #000000",
"#a c #000000",
"#b c #000000",
"#c c #000000",
"#d c #000000",
"#e c #000000",
"#f c #000000",
"#g c #000000",
"#h c #000000",
"#i c #000000",
"#j c #000000",
"#k c #000000",
"#l c #000000",
"#m c #000000",
"#n c #000000",
"#o c #000000",
"#p c #000000",
"#q c #000000",
"#r c #000000",
"#s c #000000",
"#t c #000000",
"#u c #000000",
"#v c #000000",
"#w c #000000",
"#x c #000000",
"#y c #000000",
"#z c #000000",
"#A c #000000",
"#B c #000000",
"#C c #000000",
"#D c #000000",
"#E c #000000",
"#F c #000000",
"#G c #000000",
"#H c #000000",
"#I c #000000",
"#J c #000000",
"#K c #000000",
"#L c #000000",
"#M c #000000",
"#N c #000000",
"#O c #000000",
"#P c #000000",
"#Q c #000000",
"#R c #000000",
"#S c #000000",
"#T c #000000",
"#U c #000000",
"#V c #000000",
"#W c #000000",
"#X c #000000",
"#Y c #000000",
"#Z c #000000",
"#0 c #000000",
"#1 c #000000",
"#2 c #000000",
"#3 c #000000",
"#4 c #000000",
"#5 c #000000",
"#6 c #000000",
"#7 c #000000",
"#8 c #000000",
"a` c #000000",
"a. c #000000",
"a# c #000000",
"aa c #000000",
"ab c #000000",
"ac c #000000",
"ad c #000000",
"ae c #000000",
"af c #000000",
"ag c #000000",
"ah c #000000",
"ai c #000000",
"aj c #000000",
"ak c #000000",
"al c #000000",
"am c #000000",
"an c #000000",
"ao c #000000",
"ap c #000000",
"aq c #000000",
"ar c #000000",
"as c #000000",
"at c #000000",
"au c #000000",
"av c #000000",
"aw c #000000",
"ax c #000000",
"ay c #000000",
"az c #000000",
"aA c #000000",
"aB c #000000",
"aC c #000000",
"aD c #000000",
"aE c #000000",
"aF c #000000",
"aG c #000000",
"aH c #000000",
"aI c #000000",
"aJ c #000000",
"aK c #000000",
"aL c #000000",
"aM c #000000",
"aN c #000000",
"aO c #000000",
"aP c #000000",
"aQ c #000000",
"aR c #000000",
"aS c #000000",
"aT c #000000",
"aU c #000000",
"aV c #000000",
"aW c #000000",
"aX c #000000",
"aY c #000000",
"aZ c #000000",
"a0 c #000000",
"a1 c #000000",
"a2 c #000000",
"a3 c #000000",
"a4 c #000000",
"a5 c #000000",
"a6 c #000000",
"a7 c #000000",
"a8 c #000000",
/* pixels */
"```.`````#```#```a`b`.`c```d`d`d`c`c`d`d`d`d`e`#`#`#`#`f`g`g`c``",
"`d`#`#`#`#`#`#`#`#`#```````````#```#```````#`#`#`#`#`#`#`#`#`#`#",
"`d`h```d`````````````d`#```````````#`d`d`d```````````#`#`#`#`#`#",
"`````d`c`d`d`#`d`c`````#`#`````.```````g`c`d`````````````#`#`c`g",
"`g`b`f`e`e`.`.`````d```#```d`c`i`g`c`g`h`h`.`c`d`````b```#`#`.``",
"`b`j`f`f`k`a`b`j`f`````d`````l`l`j`.`.`h`b`h`b`.`c`i`e`````#`d`d",
"`b`h`f`e`f`b`h`f`f`d`d`g```d```e`.`.`g`g`.`k`b`j`l`a`i`c`#`#`d`c",
"`f`b`a`a`k`b`j`i`m`d`d`c`#`d```e`g`d`.`i`a`i`i`e`a`f`k`````#`g`d",
"`d`g`a`f`f`j`j`j`j`````d`#`d```h`c`e`f`e`a`k`f`j`i`c`````d`#`#`j",
"`d`d`h`f`.`````````d```#`#`g```d`f`.`.`h`k`k`.`d`d`````j`#`#````",
"```d`d`c`g`c`````````d`#`#```d`c`c`d`c`d`d`d`d```````f`#`#`#````",
"```d`c`c`c`c`````d`c```#```#```g`c`g`d`d`d`d`g`h`b`c````````````",
"`d```````````````````#`#`#```````````#`#```````#```#```#`#`````d",
"`d`c`j`j`j`#```f`n`l`k`j`f`i`l`i`f`h`#`#```k`e`e`f`b`#`d`.`f`j`d",
"`````.`j`i`````e`l`f`h`k`e`e`e`k`g`i`#`#`g`e`.`a`a`i```d`n`i`e`k",
"`````d```````d`g`d`d`h`b`i`i`e`f```#`#`````c`j`a`i`e`#`#`#`g````",
"```d`c`d```d```````````#`d`#`#`#`#`#`c`h`d`#`#```````#`````````#",
"```d`d`g`c```d```d```d`d`d`````#```k`d`````````d`d`c`b`d```c````",
"`.`b`b`.`g`j`c`g`g`.`f`b`a`d`d`#`.`h```````````````d`f`f`.`g`c`h",
"`f`h`h`.`g`b`h`b`b`j`f`f`j`a`g```#`b`.`j`j`j`b`f`j`b`b`b`j`a`d`f",
"`f`h`g`.`g`j`j`f`k`f`k`k`k`b`i`d`#`g`e`a`e`f`f`j`j`j`f`f`f`h`d`a",
"`i`a`g`.`g`h`f`k`a`a`a`a`a`b`f`#```a`k`n`l`e`f`j`f`j`f`e`i`j`d`.",
"`b`i`c`g`g`.`f`f`k`a`a`a`k`b`a`````h`f`a`a`f`j`b`b`b`j`k`i`e`d`h",
"`b`d`g`c`g`h`b`b`j`k`a`i`i`i`c`d`g`c`e`e`b`h`.`a`a`h`h`b`j`b`g`b",
"`h`g`c`c`c`d`d`h`g`h`h`h`d`````````g```````d`d`c`d`d`d`d`#`g`d`k",
"`c`d```````````#`#`````````````````````````d`d`d```````````#`d`c",
"```````g`c`#`#`````c```````d`d`d`d```d```````#`#`#`#`#`#`````g``",
"`c`.`b`f`d`#`f`k`c`d`.`h`i`h`h`h`e`h`g`d`````````#`#`#`b`d`c`c`c",
"`b`j`b`b`c```b`e`.`g`k`a`k`f`j`f`f`b`e`j`a`e`k`d`#`#`k```c`b`c`g",
"`g`h`.`d`d`#```b`g`.`a`a`j`b`f`k`f`i`g`m`n`k`j`d`g```a```i`f`.`d",
"```j`d`d```#`#`f`c`e`k`a`f`f`j`k`k`e`h`k`a`k`h`d`g`#`b```l`a`.`c",
"`#```c`````#`#`e`d`.`l`k`j`h`g`.`j`e`d`g`g`d`d`k`c`#`.```d`d`.`c"
};
